# xmcd
#
# Track frame offsets:
#  150
#  12752
#  29554
#  49506
#  66608
#  83860
#  98937
#  115589
#  137191
#  148743
#  173270
#  187072
#  204774
#  221876
#  236878
#  240180
#  241607
#  244534
#
# Disc length: 3279 seconds
#
# Revision: 0
# Processed by: cddbd v1.5.2PL0 Copyright (c) Steve Scherf et al.
# Submitted via: Collectorz.com_Music_Collector 6.11
#
DISCID=f30ccd12
DTITLE=Various Artist - NfS Country Singles Volume 21
DYEAR=1995
DGENRE=Country
TTITLE0=Brian Young - Come On Reg Lindsay
TTITLE1=Paiul Gibbs - Back to Basics
TTITLE2=T.C. Cassidy - I'll Meet You In My dreams
TTITLE3=Grant Luhrs - Heart Of The Night
TTITLE4=Steve Gibson - Dance With a Cowboy
TTITLE5=Diana Woods - Call On me
TTITLE6=tony johns - Fishin' With Jack
TTITLE7=Shane Hogan - You And Me
TTITLE8=Clancy - The Bloomfield Track
TTITLE9=Julie Watts - Old Folk
TTITLE10=Tanya Self - I Don't Do Floors
TTITLE11=John Michael Montgomery - I Can Love You Like That
TTITLE12=Susie Luchsinger/Paul Overstreet - I Don't Love You Like I Used To
TTITLE13=Jean Stafford - You Waltzed Right Into My Heart
TTITLE14=Interview Tracks
TTITLE15=Interview Tracks
TTITLE16=Interview Tracks
TTITLE17=Interview Tracks
EXTD=
EXTT0=
EXTT1=
EXTT2=
EXTT3=
EXTT4=
EXTT5=
EXTT6=
EXTT7=
EXTT8=
EXTT9=
EXTT10=
EXTT11=
EXTT12=
EXTT13=
EXTT14=
EXTT15=
EXTT16=
EXTT17=
PLAYORDER=
